
<svg width="25px" height="32px" viewBox="0 0 25 32" version="1.1" xmlns="http://www.w3.org/2000/svg" xmlns:xlink="http://www.w3.org/1999/xlink">
    <path d="M12.1400126,7.10542736e-15 C18.8448707,7.10542736e-15 24.2800252,5.43515457 24.2800252,12.1399621 C24.2800252,18.8448202 12.1400126,31.9351924 12.1400126,31.9351924 C12.1400126,31.9351924 -5.32907052e-15,18.8448202 -5.32907052e-15,12.1399621 C-5.32907052e-15,5.43515457 5.43515457,7.10542736e-15 12.1400126,7.10542736e-15 Z M19.8095142,8.12068139 C18.5324921,7.82566562 17.2658675,7.97723659 16.0352303,8.46319243 C15.3181073,8.74619558 14.6314196,9.16567823 13.9354953,9.53761514 C12.7392808,10.1771104 11.536858,10.2103218 10.355735,9.52716719 C9.33970978,8.94031546 8.32787382,8.36381073 7.21907886,8.14733123 C6.29309779,7.96678864 5.36247319,7.86892114 4.44229653,8.13264353 C3.69150789,8.34801262 3.18460568,8.97509148 2.93062461,9.941653 C2.77557098,10.5320379 2.83588644,11.124694 2.90473186,11.7162397 C3.13630284,13.718612 4.09589905,15.0740694 5.6041388,15.5132871 C5.97915457,15.6227129 6.3638612,15.6752555 6.74392429,15.7537413 L6.74392429,15.7537413 L7.88446688,15.7537413 C8.19760252,15.7058423 8.51078864,15.6617792 8.82357098,15.6091861 C9.62079495,15.4753817 10.3611861,15.1525552 11.0110789,14.5057918 C11.1009716,14.4162776 11.1981073,14.339041 11.2975647,14.2659621 L11.5979811,14.0510789 C12.0190284,13.7413754 12.4269022,13.8388391 12.8231672,14.13653 C12.9879117,14.259836 13.1564416,14.3800631 13.3064984,14.530877 C14.0267508,15.2558233 14.8657161,15.5272177 15.7449085,15.653653 L15.7449085,15.653653 L16.438511,15.7537413 L17.5411483,15.7537413 C17.9401893,15.6706625 18.3449842,15.6196341 18.7366057,15.4974385 C19.5272681,15.2511293 20.2127445,14.7574511 20.7103091,13.8859811 C21.2833312,12.8823218 21.4855268,11.7235584 21.4406562,10.5030158 C21.3981073,9.34354574 20.6790158,8.3213123 19.8095142,8.12068139 Z M9.30259685,11.427841 C9.39072303,11.5971785 9.46496909,11.7850397 9.52064101,11.9768379 C9.70855268,12.6224909 9.55541703,13.1309073 9.09303218,13.4606991 C8.68591546,13.7518284 8.24402271,13.8809893 7.78971356,13.9505413 C7.57631293,13.9834498 7.36094385,13.995412 7.19508896,14.0120177 C6.31705741,14.0046991 5.57590915,13.7085729 4.98244543,12.9058978 C4.19294385,11.8376328 4.44041388,10.095147 5.69654006,9.7015571 C7.05396593,9.27627003 8.53590915,9.95634574 9.30259685,11.427841 Z M18.7439546,9.77227508 C19.7545792,10.1902435 20.0797274,11.6111142 19.4263521,12.7063823 C18.9121312,13.5689691 18.2007621,13.923089 17.3923331,14.0012215 C17.3042069,14.0097009 17.2152227,14.0023823 17.1266927,14.0023823 C16.4791218,13.9741174 15.8396265,13.8914423 15.2484845,13.4989628 C14.7110965,13.1428744 14.5498347,12.5935243 14.7964972,11.8693855 C15.0865161,11.0184076 15.6092164,10.465171 16.2223647,10.0464454 C17.0316013,9.49396593 17.8821754,9.41588391 18.7439546,9.77227508 Z" id="Combined-Shape"></path>
</svg>