
<svg width="14px" height="14px" viewBox="0 0 14 14" version="1.1" xmlns="http://www.w3.org/2000/svg" xmlns:xlink="http://www.w3.org/1999/xlink">
    <path d="M6.65685425,5.24264069 L11.6066017,0.292893219 C11.997126,-0.0976310729 12.630291,-0.0976310729 13.0208153,0.292893219 C13.4113396,0.683417511 13.4113396,1.31658249 13.0208153,1.70710678 L8.07106781,6.65685425 L13.0208153,11.6066017 C13.4113396,11.997126 13.4113396,12.630291 13.0208153,13.0208153 C12.630291,13.4113396 11.997126,13.4113396 11.6066017,13.0208153 L6.65685425,8.07106781 L1.70710678,13.0208153 C1.31658249,13.4113396 0.683417511,13.4113396 0.292893219,13.0208153 C-0.0976310729,12.630291 -0.0976310729,11.997126 0.292893219,11.6066017 L5.24264069,6.65685425 L0.292893219,1.70710678 C-0.0976310729,1.31658249 -0.0976310729,0.683417511 0.292893219,0.292893219 C0.683417511,-0.0976310729 1.31658249,-0.0976310729 1.70710678,0.292893219 L6.65685425,5.24264069 Z" id="Path"></path>
</svg>