
<svg width="28px" height="15px" viewBox="0 0 28 15" version="1.1" xmlns="http://www.w3.org/2000/svg" xmlns:xlink="http://www.w3.org/1999/xlink">
    <path fill="#0C2C84" d="M26.8212043,6.45087727 C27.459228,6.06817371 28.0968091,5.11130415 27.8418209,4.9836994 C27.3316233,4.79234762 26.5022478,4.40964407 25.8642241,4.28203932 C26.0555759,3.64423695 25.2265324,3.2615334 23.5678921,2.68736739 C23.4405087,2.04945434 22.41956,1.34779426 21.5905166,1.98570731 C20.4421845,1.34768359 17.316477,0.327177664 15.7218051,0.135715213 C15.5942004,0.3909247 15.3392122,0.837485964 14.8289039,0.901233 C12.4048565,1.28404723 9.98080906,-0.119272929 6.28104621,0.00822114234 C3.41043751,0.135715213 0.284730004,3.13392865 0.795148976,6.76972312 C1.17785253,6.89754921 1.62452447,7.28025276 1.43306202,7.72681403 C1.24171024,8.17348596 0.922753719,8.61960454 0.476192454,9.70418952 C0.093488897,10.7888852 -0.480677111,13.1488536 0.731401941,14.8076045 L3.98471419,14.8076045 C4.04846123,14.5521737 4.04846123,13.6589405 3.66575767,13.5955255 C3.34691182,13.5315571 3.02784463,13.0849958 3.09170234,12.6383239 C3.21919641,12.1283476 3.66575767,11.7456441 4.62262724,11.2988615 C4.43127546,10.5974227 3.98482487,9.83157292 3.92096716,9.57680612 C4.30378139,9.51283774 6.34490392,13.3402053 6.6001134,13.7867666 C6.91895925,14.2328852 7.30177348,14.6161421 7.74833475,14.8076045 L11.3204928,14.8076045 C11.3204928,14.4247903 11.2566351,13.5955255 10.8739316,13.4676994 C10.3636233,13.340316 9.78956795,13.4042844 9.66196321,12.8296757 C9.53435846,12.2556204 9.91717269,11.5541816 10.0446668,10.6608377 C10.8101845,10.4060709 11.9585166,10.469486 12.4049672,10.4060709 C12.0222636,11.6175966 12.1498683,13.276237 12.2135047,13.8502923 C12.2774731,14.0416441 12.7876707,14.5521737 13.4893308,14.8073832 L17.0617102,14.8073832 C17.0617102,14.4880947 16.9341055,13.5314464 16.5514019,13.5314464 C15.6583901,13.4675887 15.1479711,13.0848852 15.1479711,12.7021816 C15.2117181,12.2556204 15.7220264,11.7454227 16.4874336,11.0435413 C16.8065008,10.7887745 17.6994019,9.57680612 18.0823268,9.7681579 C17.6357656,10.0868931 17.3806668,10.7249168 17.1254573,11.1715887 C17.5081608,12.3195887 19.2305482,14.1695808 20.3150225,14.8076045 L23.8870699,14.8076045 C23.8234336,14.424901 23.5681134,13.5316678 22.930311,13.4678101 C22.0372992,13.2764583 21.5907379,13.1489642 21.2716707,12.702403 C21.0163506,12.2558417 20.8251095,10.7889958 20.5063743,9.95962035 C19.9320976,8.74765197 19.8683506,8.23712233 20.4424059,7.91838715 C20.5063743,8.10973893 20.8890778,8.81106699 21.0804296,9.00252944 C22.0372992,8.87514604 24.0785324,8.23712233 24.3337419,7.66306699 C24.9714336,7.7269247 25.6093466,7.7269247 25.9284138,7.59909861 C25.9920502,7.59909861 26.5024691,6.96162826 26.3749751,6.8336915 C26.3111174,6.76983379 26.1835126,6.76983379 25.9920502,6.76983379 C26.310896,6.70608675 26.6935996,6.5146243 26.8212043,6.45087727 Z" id="Path"></path>
</svg>