<svg width="45" height="44" viewBox="0 0 45 44" xmlns="http://www.w3.org/2000/svg" xmlns:xlink="http://www.w3.org/1999/xlink">
  <defs>
    <filter x="-29.3%" y="-23.5%" width="155.9%" height="156%" filterUnits="objectBoundingBox" id="a">
      <feMorphology radius="2" operator="dilate" in="SourceAlpha" result="shadowSpreadOuter1"/>
      <feOffset dy="1" in="shadowSpreadOuter1" result="shadowOffsetOuter1"/>
      <feGaussianBlur stdDeviation="2" in="shadowOffsetOuter1" result="shadowBlurOuter1"/>
      <feComposite in="shadowBlurOuter1" in2="SourceAlpha" operator="out" result="shadowBlurOuter1"/>
      <feColorMatrix values="0 0 0 0 0 0 0 0 0 0 0 0 0 0 0 0 0 0 0.2 0" in="shadowBlurOuter1"/>
    </filter>
    <path d="M31.46.57l-.03-.03c-1.64-1.55-4.9 1.2-4.9 1.2l-5.9 4.66-6.24-1.1c.9-1.3 1.17-2.6.57-3.2-.77-.77-2.71-.09-4.33 1.53a8.4 8.4 0 00-.76.87L5.1 3.65 1.91 6.36l12.98 5.96-8.32 10.06-5.19-.97-1.31 1.3 9.21 9.22 1.31-1.31-.97-5.19 10.06-8.32 5.96 12.98 2.7-3.18-.84-4.78c.3-.23.59-.48.87-.76 1.62-1.62 2.3-3.56 1.52-4.33-.6-.6-1.89-.33-3.19.57l-1.1-6.23 4.65-5.92s2.76-3.25 1.2-4.89z" id="b"/>
  </defs>
  <g transform="translate(7 5)" fill-rule="nonzero" fill="none">
    <use fill="#000" filter="url(#a)" xlink:href="#b"/>
    <path stroke="#E32525" stroke-width="2" d="M31.03 6.1l-4.37 5.55.78 4.4c1.23-.5 2.4-.49 3.16.28 1.3 1.3.44 3.79-1.52 5.75l-.5.45.84 4.67-4.04 4.74-6.07-13.23-8.6 7.12.96 5.12-2.39 2.4-10.63-10.63 2.4-2.4 5.12.97 7.12-8.6L.06 6.62 4.8 2.58l4.67.83c.14-.17.3-.33.45-.49C11.88.96 14.36.1 15.67 1.4c.77.76.79 1.93.27 3.16l4.41.78L25.9.98c.29-.24.75-.58 1.33-.93.67-.4 1.33-.7 1.98-.86 1.11-.27 2.14-.11 2.93.65l.04.03.01.02c1.05 1.1.94 2.57.16 4.18a10.34 10.34 0 01-1.18 1.87l-.1.12-.03.03s0 0 0 0z" fill="#FFF" fill-rule="evenodd"/>
  </g>
</svg>
