<svg width="39" height="44" viewBox="0 0 39 44" xmlns="http://www.w3.org/2000/svg" xmlns:xlink="http://www.w3.org/1999/xlink">
  <defs>
    <filter x="-32.5%" y="-23.4%" width="165%" height="153.1%" filterUnits="objectBoundingBox" id="a">
      <feMorphology radius="2" operator="dilate" in="SourceAlpha" result="shadowSpreadOuter1"/>
      <feOffset dy="1" in="shadowSpreadOuter1" result="shadowOffsetOuter1"/>
      <feGaussianBlur stdDeviation="2" in="shadowOffsetOuter1" result="shadowBlurOuter1"/>
      <feComposite in="shadowBlurOuter1" in2="SourceAlpha" operator="out" result="shadowBlurOuter1"/>
      <feColorMatrix values="0 0 0 0 0 0 0 0 0 0 0 0 0 0 0 0 0 0 0.2 0" in="shadowBlurOuter1"/>
    </filter>
    <path d="M26.86 28.72v2.09c-.5 0-.7.14-1.07.4-.47.33-1.11.79-2.28.79a3.57 3.57 0 01-2.29-.79c-.36-.26-.56-.4-1.07-.4-.5 0-.7.14-1.07.4-.47.33-1.11.79-2.29.79a3.57 3.57 0 01-2.28-.79c-.37-.26-.57-.4-1.07-.4-.5 0-.71.14-1.08.4-.47.33-1.1.79-2.28.79a3.57 3.57 0 01-2.28-.79c-.37-.26-.57-.4-1.08-.4-.5 0-.7.14-1.07.4-.47.33-1.11.79-2.28.79a3.57 3.57 0 01-2.29-.79c-.36-.26-.56-.4-1.07-.4v-2.09c1.17 0 1.82.46 2.28.79.37.26.57.4 1.08.4.5 0 .7-.14 1.07-.4a3.57 3.57 0 012.28-.79c1.18 0 1.82.46 2.29.79.36.26.56.4 1.07.4.5 0 .7-.14 1.07-.4a3.57 3.57 0 012.29-.79c1.17 0 1.81.46 2.28.79.37.26.57.4 1.07.4.5 0 .71-.14 1.08-.4a3.57 3.57 0 012.28-.79c1.17 0 1.81.46 2.28.79.37.26.57.4 1.08.4.5 0 .7-.14 1.07-.4a3.57 3.57 0 012.28-.79zM12.4 11.9v14.82c-1.1.2-1.84.66-2.31 1a5.54 5.54 0 00-3.36-1.09 5.7 5.7 0 00-1.87.3L.43 15.97 12.4 11.9zm2.1 0l11.96 4.08-4.47 10.94a5.7 5.7 0 00-1.83-.29c-1.7 0-2.75.66-3.36 1.08-.47-.33-1.2-.8-2.3-.99V11.9zm8.34-5.26v5.9L14.1 9.57l-.67-.23-.67.23-8.72 2.97v-5.9h18.78zM14.48 0v1.6h5.01v2.95H7.45V1.6h4.94V0h2.1z" id="b"/>
  </defs>
  <g transform="translate(6 5)" fill-rule="nonzero" fill="none">
    <use fill="#000" filter="url(#a)" xlink:href="#b"/>
    <path stroke="#E32525" stroke-width="2" d="M27.86 27.72v4.09h-1c-.19 0-.18 0-.5.22l-.35.24c-.73.47-1.5.73-2.5.73-1.2 0-1.92-.3-2.87-.97-.3-.23-.3-.22-.49-.22-.14 0-.17 0-.24.04l-.25.18c-.95.67-1.66.97-2.87.97-1.2 0-1.92-.3-2.86-.97l-.26-.18c-.06-.03-.1-.04-.23-.04-.14 0-.18 0-.24.04l-.26.18-.36.24c-.73.47-1.5.73-2.5.73-1.2 0-1.92-.3-2.86-.97-.31-.23-.3-.22-.5-.22-.14 0-.17 0-.23.04l-.26.18c-.94.67-1.66.97-2.86.97s-1.92-.3-2.86-.97c-.32-.23-.3-.22-.5-.22h-1v-4.09h1a4.38 4.38 0 012.86.97c.32.23.3.22.5.22.14 0 .17 0 .23-.04l.26-.18a4.37 4.37 0 012.86-.97c1.21 0 1.92.3 2.87.97.31.23.3.22.49.22.14 0 .17 0 .24-.04l.25-.18a4.37 4.37 0 012.87-.97c1.2 0 1.92.3 2.86.97l.26.18c.06.03.1.04.23.04.14 0 .18 0 .24-.04l.26-.18a4.37 4.37 0 012.86-.97c1.2 0 1.92.3 2.86.97.32.23.3.22.5.22.19 0 .18 0 .5-.22a4.37 4.37 0 012.85-.97h1zM13.4 10.51v17.05l-.82.15c-.75.13-1.3.39-1.92.82l-.57.4-.57-.4c-.85-.6-1.63-.9-2.79-.9a4.7 4.7 0 00-1.54.25l-.9.3L-.9 15.38 13.4 10.5zm.1 0l14.28 4.86-5.22 12.8-.89-.3a4.7 4.7 0 00-1.51-.24c-1.16 0-1.94.3-2.78.9l-.58.4-.57-.4a4.46 4.46 0 00-1.91-.82l-.83-.15V10.51zm-.05-.11l-.35.12-10.04 3.42v-8.3h20.78v8.3l-1.32-.45-8.72-2.97-.35-.12zM15.48.6h5.01v4.95H6.45V.6h4.94V-1h4.1V.6z" fill="#FFF" fill-rule="evenodd"/>
  </g>
</svg>
