
<svg width="14px" height="14px" viewBox="0 0 14 14" version="1.1" xmlns="http://www.w3.org/2000/svg" xmlns:xlink="http://www.w3.org/1999/xlink">
    <path d="M13.7327143,0.221296265 L13.71875,0.207296265 C13.0049643,-0.47148945 11.5795357,0.734046265 11.5795357,0.734046265 L8.99157143,2.77151055 L6.26710714,2.28865341 C6.66014286,1.71890341 6.77853571,1.15329626 6.5165,0.89126055 C6.17710714,0.551867693 5.32853571,0.850189122 4.62121429,1.55751055 C4.4975,1.68122484 4.38664286,1.80926055 4.28917857,1.93811769 L2.19725,1.56736769 L0.803821429,2.75465341 L6.48396429,5.36104626 L2.84242857,9.76115341 L0.574392857,9.33593912 L0,9.90951055 L4.03060714,13.9400106 L4.60410714,13.3656534 L4.17889286,11.097582 L8.57903571,7.45604626 L11.1854286,13.1361534 L12.3727143,11.7427248 L12.0019643,9.65079626 C12.1308571,9.55333198 12.2588571,9.44251055 12.3826071,9.31876055 C13.0899286,8.61143912 13.38825,7.76290341 13.0488929,7.42354626 C12.7867857,7.16147484 12.2211429,7.27990341 11.6513929,7.67290341 L11.1685357,4.94847484 L13.206,2.36047484 C13.206,2.36051055 14.4115714,0.935046265 13.7327143,0.221296265 Z" id="Path"></path>
</svg>
