
<svg width="14px" height="16px" viewBox="0 0 14 16" version="1.1" xmlns="http://www.w3.org/2000/svg" xmlns:xlink="http://www.w3.org/1999/xlink">
    <path d="M13.4261563,14.3597812 L13.4261563,15.40325 C13.1731563,15.40325 13.0723125,15.4749375 12.8892813,15.6050937 C12.6549063,15.7717187 12.3339063,15.9999687 11.7477188,15.9999687 C11.1615313,15.9999687 10.8405313,15.77175 10.6061563,15.6050937 C10.423125,15.4749375 10.3222813,15.40325 10.0692813,15.40325 C9.8163125,15.40325 9.71553125,15.4749375 9.53253125,15.6050625 C9.2981875,15.77175 8.97721875,16 8.3910625,16 C7.80490625,16 7.4839375,15.77175 7.2495625,15.6050625 C7.0665625,15.4749375 6.96575,15.40325 6.71278125,15.40325 C6.45984375,15.40325 6.3590625,15.4749375 6.17609375,15.6050625 C5.94175,15.7717187 5.62078125,16 5.034625,16 C4.44846875,16 4.12753125,15.77175 3.89315625,15.6050625 C3.71021875,15.4749375 3.60940625,15.40325 3.35646875,15.40325 C3.10346875,15.40325 3.0026875,15.4749375 2.8196875,15.6050625 C2.5853125,15.77175 2.26434375,16 1.6781875,16 C1.09203125,16 0.7710625,15.77175 0.53671875,15.6050937 C0.35375,15.4749687 0.2529375,15.4032812 0,15.4032812 L0,15.4032812 L0,14.3598125 C0.58615625,14.3598125 0.907125,14.5880937 1.1415,14.75475 C1.3244375,14.884875 1.42525,14.9565625 1.6781875,14.9565625 C1.93115625,14.9565625 2.03190625,14.884875 2.21490625,14.75475 C2.44925,14.5880625 2.77021875,14.3598125 3.356375,14.3598125 C3.94253125,14.3598125 4.26346875,14.5880625 4.49784375,14.75475 C4.68078125,14.884875 4.78159375,14.9565625 5.03453125,14.9565625 C5.2875,14.9565625 5.38825,14.884875 5.57125,14.75475 C5.805625,14.5880625 6.1265625,14.3598125 6.71271875,14.3598125 C7.298875,14.3598125 7.61984375,14.5880625 7.85421875,14.75475 C8.03721875,14.884875 8.13803125,14.9565625 8.391,14.9565625 C8.64396875,14.9565625 8.74471875,14.884875 8.92771875,14.75475 C9.16209375,14.5880625 9.4830625,14.3598125 10.0692188,14.3598125 C10.6554063,14.3598125 10.9764063,14.5880312 11.2107813,14.7546875 C11.3938125,14.8848437 11.4946563,14.9565312 11.7476563,14.9565312 C12.0006563,14.9565312 12.1015,14.8848437 12.2845313,14.7546875 C12.518875,14.5880312 12.8399063,14.3597812 13.4261563,14.3597812 L13.4261563,14.3597812 Z M6.19128125,5.9515 L6.19128125,13.3610625 C5.63915625,13.4576562 5.2694375,13.6917187 5.0345625,13.8562187 C4.7321875,13.6445 4.20790625,13.3163125 3.35640625,13.3163125 C2.98440625,13.3163125 2.67490625,13.3789375 2.41909375,13.4671562 L2.41909375,13.4671562 L0.211,7.986875 L6.19128125,5.9515 Z M7.23478125,5.95146875 L13.2174063,7.98759375 L10.9851563,13.46025 C10.7333438,13.3758438 10.4310938,13.3162813 10.0692188,13.3162813 C9.21765625,13.3162813 8.69334375,13.6445 8.391,13.8562188 C8.15621875,13.6918125 7.7866875,13.4577813 7.23478125,13.361125 L7.23478125,13.361125 L7.23478125,5.95146875 Z M11.4086875,3.320125 L11.4086875,6.26978125 L7.0493125,4.78609375 L6.713125,4.67165625 L6.37690625,4.78609375 L2.01740625,6.2698125 L2.01740625,3.320125 L11.4086875,3.320125 Z M7.23478125,0 L7.23478125,0.8 L9.739125,0.8 L9.739125,2.27665625 L3.72175,2.27665625 L3.72175,0.8 L6.1913125,0.8 L6.1913125,0 L7.23478125,0 Z" id="Path-5"></path>
</svg>
